<svg width="42" height="42" viewBox="0 0 42 42" fill="none" xmlns="http://www.w3.org/2000/svg">
<path d="M22.75 28H5.25C4.78587 28 4.34075 28.1844 4.01256 28.5126C3.68437 28.8407 3.5 29.2859 3.5 29.75C3.5 30.2141 3.68437 30.6593 4.01256 30.9874C4.34075 31.3156 4.78587 31.5 5.25 31.5H22.75C23.2141 31.5 23.6592 31.3156 23.9874 30.9874C24.3156 30.6593 24.5 30.2141 24.5 29.75C24.5 29.2859 24.3156 28.8407 23.9874 28.5126C23.6592 28.1844 23.2141 28 22.75 28ZM5.25 14H36.75C37.2141 14 37.6592 13.8156 37.9874 13.4874C38.3156 13.1592 38.5 12.7141 38.5 12.25C38.5 11.7859 38.3156 11.3408 37.9874 11.0126C37.6592 10.6844 37.2141 10.5 36.75 10.5H5.25C4.78587 10.5 4.34075 10.6844 4.01256 11.0126C3.68437 11.3408 3.5 11.7859 3.5 12.25C3.5 12.7141 3.68437 13.1592 4.01256 13.4874C4.34075 13.8156 4.78587 14 5.25 14ZM36.75 19.25H5.25C4.78587 19.25 4.34075 19.4344 4.01256 19.7626C3.68437 20.0908 3.5 20.5359 3.5 21C3.5 21.4641 3.68437 21.9092 4.01256 22.2374C4.34075 22.5656 4.78587 22.75 5.25 22.75H36.75C37.2141 22.75 37.6592 22.5656 37.9874 22.2374C38.3156 21.9092 38.5 21.4641 38.5 21C38.5 20.5359 38.3156 20.0908 37.9874 19.7626C37.6592 19.4344 37.2141 19.25 36.75 19.25Z" fill="white"/>
</svg>
