<svg width="34" height="34" viewBox="0 0 34 34" fill="none" xmlns="http://www.w3.org/2000/svg">
<path d="M0 16.32C0 8.62665 0 4.78002 2.39001 2.39001C4.78002 0 8.62665 0 16.32 0H17.68C25.3733 0 29.22 0 31.61 2.39001C34 4.78002 34 8.62665 34 16.32V17.68C34 25.3733 34 29.22 31.61 31.61C29.22 34 25.3733 34 17.68 34H16.32C8.62665 34 4.78002 34 2.39001 31.61C0 29.22 0 25.3733 0 17.68V16.32Z" fill="url(#paint0_linear_7_83)"/>
<path d="M12.5124 23.787L12.8237 23.9409C14.1208 24.71 15.5734 25.069 17.0261 25.069C21.5916 25.069 25.327 21.3769 25.327 16.8642C25.327 14.7105 24.445 12.608 22.8886 11.0696C21.3322 9.53118 19.2569 8.65946 17.0261 8.65946C12.4606 8.65946 8.72512 12.3516 8.77703 16.9155C8.77703 18.4539 9.24396 19.9411 10.0221 21.223L10.2297 21.5307L9.39963 24.5562L12.5124 23.787Z" fill="#31D652"/>
<path d="M23.7706 10.2491C22.0066 8.45435 19.5682 7.48 17.0779 7.48C11.7862 7.48 7.53191 11.7362 7.58375 16.9155C7.58375 18.5564 8.05068 20.1462 8.82894 21.582L7.48 26.4535L12.5124 25.1715C13.9132 25.9408 15.4696 26.2998 17.0261 26.2998C22.266 26.2998 26.5203 22.0435 26.5203 16.8643C26.5203 14.3515 25.5345 11.9926 23.7706 10.2491ZM17.0779 24.7101C15.6772 24.7101 14.2764 24.3512 13.0831 23.6333L12.7719 23.4794L9.76279 24.2486L10.541 21.3257L10.3335 21.018C8.05068 17.3771 9.1402 12.5567 12.8756 10.3003C16.611 8.04407 21.4359 9.12097 23.7187 12.8131C26.0015 16.5053 24.9119 21.2743 21.1766 23.5306C19.9833 24.2998 18.5306 24.7101 17.0779 24.7101ZM21.6435 19.0181L21.0728 18.7617C21.0728 18.7617 20.2428 18.4027 19.7239 18.1463C19.672 18.1463 19.6202 18.095 19.5682 18.095C19.4126 18.095 19.3088 18.1463 19.2051 18.1976C19.2051 18.1976 19.1532 18.2488 18.4269 19.0693C18.375 19.1719 18.2712 19.2232 18.1675 19.2232H18.1155C18.0637 19.2232 17.96 19.1719 17.908 19.1206L17.6486 19.0181C17.0779 18.7617 16.5592 18.454 16.1441 18.0437C16.0403 17.9412 15.8847 17.8386 15.7809 17.7361C15.4177 17.3771 15.0546 16.9668 14.7952 16.5053L14.7433 16.4028C14.6915 16.3515 14.6915 16.3002 14.6396 16.1977C14.6396 16.0951 14.6396 15.9926 14.6915 15.9413C14.6915 15.9413 14.899 15.6848 15.0546 15.5311C15.1584 15.4284 15.2102 15.2746 15.314 15.1721C15.4177 15.0182 15.4697 14.8131 15.4177 14.6593C15.3659 14.4028 14.7433 13.0183 14.5877 12.7106C14.4839 12.5568 14.3802 12.5055 14.2245 12.4542H13.6539C13.55 12.4542 13.4464 12.5055 13.3425 12.5055L13.2906 12.5568C13.1869 12.6081 13.0831 12.7106 12.9794 12.7619C12.8756 12.8645 12.8237 12.967 12.7199 13.0696C12.3568 13.5311 12.1493 14.0952 12.1493 14.6593C12.1493 15.0695 12.253 15.4797 12.4087 15.8387L12.4606 15.9926C12.9275 16.9668 13.55 17.8386 14.3802 18.6078L14.5877 18.8129C14.7433 18.9668 14.899 19.0693 15.0027 19.2231C16.0923 20.1462 17.3374 20.8129 18.7381 21.1718C18.8938 21.2231 19.1013 21.2231 19.257 21.2744H19.7757C20.0352 21.2744 20.3464 21.1718 20.554 21.0693C20.7096 20.9667 20.8134 20.9667 20.9171 20.8642L21.0209 20.7615C21.1247 20.659 21.2284 20.6077 21.3322 20.5052C21.4359 20.4026 21.5397 20.3001 21.5916 20.1975C21.6954 19.9924 21.7472 19.736 21.7991 19.4796V19.1206C21.7991 19.1206 21.7472 19.0693 21.6435 19.0181Z" fill="white"/>
<defs>
<linearGradient id="paint0_linear_7_83" x1="17" y1="0" x2="17" y2="34" gradientUnits="userSpaceOnUse">
<stop stop-color="#42E760"/>
<stop offset="0.765625" stop-color="#29CB4A"/>
</linearGradient>
</defs>
</svg>
